<svg xmlns="http://www.w3.org/2000/svg" id="Layer_2" width="600" height="100%" data-name="Layer 2" viewBox="0 0 1206.06 628.39">
  <defs>
    <style>
      .cls-2,.cls-3{stroke-width:0}.cls-3{fill:#fff}
    </style>
  </defs>
  <g id="Layer_1-2" data-name="Layer 1">
    <path d="M1157.27 117.79c-121.66-105.42-433.62-97.73-703.76 15.6 207.09-67.6 425.23-64.13 516.35 14.82 104.45 90.51 2.44 245.93-227.85 347.14-230.29 101.21-501.65 109.89-606.11 19.39-2.58-2.23-4.99-4.51-7.31-6.82 8.06 16.44 20.09 31.89 36.37 46 124.29 107.69 447.18 97.36 721.2-23.07 274.02-120.43 395.4-305.36 271.11-413.06Z" class="cls-2"/>
    <path d="m1177.48 434.41-82.13-99.28 77.3-100.6c2.57-3.35 3.02-7.87 1.15-11.66-.55-1.11-1.28-2.08-2.12-2.92-.14-.15-.29-.29-.43-.43-.14-.15-.29-.29-.44-.44-.14-.15-.29-.29-.43-.43-.14-.15-.29-.29-.44-.44-.14-.15-.29-.29-.43-.43-.14-.15-.29-.29-.44-.44-.14-.15-.29-.29-.43-.43-.14-.15-.29-.29-.44-.44-.14-.15-.29-.29-.43-.43-.14-.15-.29-.29-.44-.44-.14-.15-.29-.29-.43-.43-.14-.15-.29-.29-.43-.43-.14-.15-.29-.29-.44-.44-.14-.15-.29-.29-.43-.43-.14-.15-.29-.29-.44-.44-.14-.15-.29-.29-.43-.43-.14-.15-.29-.29-.44-.44-.14-.15-.29-.29-.43-.43-.14-.15-.29-.29-.44-.44-.14-.15-.29-.29-.43-.43-.14-.15-.29-.29-.43-.43-.14-.15-.29-.29-.44-.44-.14-.15-.29-.29-.43-.43-.14-.15-.29-.29-.44-.44-.14-.15-.29-.29-.43-.43-.14-.15-.29-.29-.44-.44-.14-.15-.29-.29-.43-.43-.14-.15-.29-.29-.44-.44-.14-.15-.29-.29-.43-.43-.14-.15-.29-.29-.44-.44-.14-.15-.29-.29-.43-.43-.14-.15-.29-.29-.43-.43-.14-.15-.29-.29-.44-.44-.14-.15-.29-.29-.43-.43-.14-.15-.29-.29-.44-.44-.14-.15-.29-.29-.43-.43-.14-.15-.29-.29-.44-.44-.14-.15-.29-.29-.43-.43-.14-.15-.29-.29-.44-.44-.14-.15-.29-.29-.43-.43-.14-.15-.29-.29-.43-.43-.14-.15-.29-.29-.44-.44-.14-.15-.29-.29-.43-.43-.14-.15-.29-.29-.44-.44-.14-.15-.29-.29-.43-.43-.14-.15-.29-.29-.44-.44-.14-.15-.29-.29-.43-.43-.14-.15-.29-.29-.44-.44-.14-.15-.29-.29-.43-.43-.14-.15-.29-.29-.44-.44a11.07 11.07 0 0 0-8.26-3.7h-97.95c-3.49 0-6.77 1.64-8.87 4.43l-14.16 18.83c-.07-.07-.16-.13-.24-.2-.14-.15-.29-.29-.44-.44-.14-.15-.29-.29-.43-.43-.14-.15-.29-.29-.44-.44-.14-.15-.29-.29-.43-.43-.14-.15-.29-.29-.44-.44-.14-.15-.29-.29-.43-.43-.14-.15-.29-.29-.43-.44-.14-.15-.29-.29-.44-.43-.14-.15-.29-.29-.43-.44-.14-.15-.29-.29-.44-.43-.14-.15-.29-.29-.43-.43-.14-.15-.29-.29-.44-.44-.14-.15-.29-.29-.43-.43-.14-.15-.29-.29-.44-.44-.14-.15-.29-.29-.43-.43-.14-.15-.29-.29-.43-.44-.14-.15-.29-.29-.44-.43-.14-.15-.29-.29-.43-.44-.14-.15-.29-.29-.44-.43-.14-.15-.29-.29-.43-.43-.14-.15-.29-.29-.44-.44-.14-.15-.29-.29-.43-.43-.14-.15-.29-.29-.44-.44-.14-.15-.29-.29-.43-.43-.14-.15-.29-.29-.44-.44-.14-.15-.29-.29-.43-.43-.14-.15-.29-.29-.43-.44-.14-.15-.29-.29-.44-.43-.14-.15-.29-.29-.43-.44-.14-.15-.29-.29-.44-.43-.14-.15-.29-.29-.43-.43-.14-.15-.29-.29-.44-.44-.14-.15-.29-.29-.43-.43-.14-.15-.29-.29-.44-.44-.14-.15-.29-.29-.43-.43-.14-.15-.29-.29-.43-.44-.14-.15-.29-.29-.44-.43-.14-.15-.29-.29-.43-.44-.14-.15-.29-.29-.44-.43-.14-.15-.29-.29-.43-.43-.14-.15-.29-.29-.44-.44-.14-.15-.29-.29-.43-.43-.14-.15-.29-.29-.44-.44-.14-.15-.29-.29-.43-.43-.14-.15-.29-.29-.44-.44-2.02-2.14-4.87-3.49-8.04-3.49H905.1c-6.13 0-11.09 4.97-11.09 11.09v138.76h-56.1v-36.43c0-2.35-.73-4.53-1.98-6.33 2.74-2.02 4.52-5.27 4.52-8.94V227.8c0-3.17-1.35-6.02-3.49-8.04-.14-.15-.29-.29-.43-.44-.14-.15-.29-.29-.44-.43-.14-.15-.29-.29-.43-.44-.14-.15-.29-.29-.44-.43-.14-.15-.29-.29-.43-.43-.14-.15-.29-.29-.44-.44-.14-.15-.29-.29-.43-.43-.14-.15-.29-.29-.44-.44-.14-.15-.29-.29-.43-.43-.14-.15-.29-.29-.44-.44-.14-.15-.29-.29-.43-.43-.14-.15-.29-.29-.43-.44-.14-.15-.29-.29-.44-.43-.14-.15-.29-.29-.43-.44-.14-.15-.29-.29-.44-.43-.14-.15-.29-.29-.43-.43-.14-.15-.29-.29-.44-.44-.14-.15-.29-.29-.43-.43-.14-.15-.29-.29-.44-.44-.14-.15-.29-.29-.43-.43-.14-.15-.29-.29-.43-.44-.14-.15-.29-.29-.44-.43-.14-.15-.29-.29-.43-.44-.14-.15-.29-.29-.44-.43-.14-.15-.29-.29-.43-.43-.14-.15-.29-.29-.44-.44-.14-.15-.29-.29-.43-.43-.14-.15-.29-.29-.44-.44-.14-.15-.29-.29-.43-.43-.14-.15-.29-.29-.44-.44-.14-.15-.29-.29-.43-.43-.14-.15-.29-.29-.43-.44-.14-.15-.29-.29-.44-.43-.14-.15-.29-.29-.43-.44-.14-.15-.29-.29-.44-.43-.14-.15-.29-.29-.43-.43-.14-.15-.29-.29-.44-.44-.14-.15-.29-.29-.43-.43-.14-.15-.29-.29-.44-.44-.14-.15-.29-.29-.43-.43-.14-.15-.29-.29-.43-.44-.14-.15-.29-.29-.44-.43-.14-.15-.29-.29-.43-.44-.14-.15-.29-.29-.44-.43-.14-.15-.29-.29-.43-.43-.14-.15-.29-.29-.44-.44-.14-.15-.29-.29-.43-.43-.14-.15-.29-.29-.44-.44-.14-.15-.29-.29-.43-.43-.14-.15-.29-.29-.44-.44-2.02-2.14-4.87-3.49-8.04-3.49H615.11c-1.84 0-3.55.49-5.08 1.29-1.53-.79-3.24-1.29-5.08-1.29h-78.87c-6.13 0-11.09 4.97-11.09 11.09v40.72l-12.94-23.83c-.55-1.01-1.25-1.9-2.06-2.67-.14-.15-.29-.29-.43-.43-.14-.15-.29-.29-.44-.44-.14-.15-.29-.29-.43-.43-.14-.15-.29-.29-.44-.44-.14-.15-.29-.29-.43-.43-.14-.15-.29-.29-.44-.44-.14-.15-.29-.29-.43-.43-.14-.15-.29-.29-.44-.44-.14-.15-.29-.29-.43-.43-.14-.15-.29-.29-.44-.44-.14-.15-.29-.29-.43-.43-.14-.15-.29-.29-.43-.43-.14-.15-.29-.29-.44-.44-.14-.15-.29-.29-.43-.43-.14-.15-.29-.29-.44-.44-.14-.15-.29-.29-.43-.43-.14-.15-.29-.29-.44-.44-.14-.15-.29-.29-.43-.43-.14-.15-.29-.29-.44-.44-.14-.15-.29-.29-.43-.43-.14-.15-.29-.29-.43-.43-.14-.15-.29-.29-.44-.44-.14-.15-.29-.29-.43-.43-.14-.15-.29-.29-.44-.44-.14-.15-.29-.29-.43-.43-.14-.15-.29-.29-.44-.44-.14-.15-.29-.29-.43-.43-.14-.15-.29-.29-.44-.44-.14-.15-.29-.29-.43-.43-.14-.15-.29-.29-.44-.44-.14-.15-.29-.29-.43-.43-.14-.15-.29-.29-.43-.43-.14-.15-.29-.29-.44-.44-.14-.15-.29-.29-.43-.43-.14-.15-.29-.29-.44-.44-.14-.15-.29-.29-.43-.43-.14-.15-.29-.29-.44-.44-.14-.15-.29-.29-.43-.43-.14-.15-.29-.29-.44-.44-.14-.15-.29-.29-.43-.43-.14-.15-.29-.29-.43-.43-.14-.15-.29-.29-.44-.44-.14-.15-.29-.29-.43-.43-.14-.15-.29-.29-.44-.44-.14-.15-.29-.29-.43-.43-.14-.15-.29-.29-.44-.44-.14-.15-.29-.29-.43-.43-.14-.15-.29-.29-.44-.44-.14-.15-.29-.29-.43-.43-.14-.15-.29-.29-.44-.44-2.07-2.23-5-3.56-8.12-3.56H381.1c-6.13 0-11.09 4.97-11.09 11.09v102.23l-24.76-83.21a11.01 11.01 0 0 0-2.96-4.81c-.14-.15-.29-.29-.44-.43-.14-.15-.29-.29-.43-.44-.14-.15-.29-.29-.44-.43-.14-.15-.29-.29-.43-.44-.14-.15-.29-.29-.43-.43-.14-.15-.29-.29-.44-.44-.14-.15-.29-.29-.43-.43-.14-.15-.29-.29-.44-.44-.14-.15-.29-.29-.43-.43-.14-.15-.29-.29-.44-.44-.14-.15-.29-.29-.43-.43-.14-.15-.29-.29-.44-.43-.14-.15-.29-.29-.43-.44-.14-.15-.29-.29-.44-.43-.14-.15-.29-.29-.43-.44-.14-.15-.29-.29-.43-.43-.14-.15-.29-.29-.44-.44-.14-.15-.29-.29-.43-.43-.14-.15-.29-.29-.44-.44-.14-.15-.29-.29-.43-.43-.14-.15-.29-.29-.44-.43-.14-.15-.29-.29-.43-.44-.14-.15-.29-.29-.44-.43-.14-.15-.29-.29-.43-.44-.14-.15-.29-.29-.43-.43-.14-.15-.29-.29-.44-.44-.14-.15-.29-.29-.43-.43-.14-.15-.29-.29-.44-.44-.14-.15-.29-.29-.43-.43-.14-.15-.29-.29-.44-.44-.14-.15-.29-.29-.43-.43-.14-.15-.29-.29-.44-.43-.14-.15-.29-.29-.43-.44-.14-.15-.29-.29-.44-.43-.14-.15-.29-.29-.43-.44-.14-.15-.29-.29-.43-.43-.14-.15-.29-.29-.44-.44-.14-.15-.29-.29-.43-.43-.14-.15-.29-.29-.44-.44-.14-.15-.29-.29-.43-.43-.14-.15-.29-.29-.44-.43-.14-.15-.29-.29-.43-.44-.14-.15-.29-.29-.44-.43-.14-.15-.29-.29-.43-.44-.14-.15-.29-.29-.43-.43-.14-.15-.29-.29-.44-.44-.14-.15-.29-.29-.43-.43-.14-.15-.29-.29-.44-.44-.14-.15-.29-.29-.43-.43-.14-.15-.29-.29-.44-.44-2.05-2.2-4.95-3.55-8.11-3.55H190.33c-4.91 0-9.23 3.23-10.63 7.93l-24.77 83.23v-57.87c0-3.17-1.35-6.02-3.49-8.04-.14-.15-.29-.29-.44-.43-.14-.15-.29-.29-.43-.44-.14-.15-.29-.29-.44-.43-.14-.15-.29-.29-.43-.44-.14-.15-.29-.29-.43-.43-.14-.15-.29-.29-.44-.44-.14-.15-.28-.29-.43-.43-.14-.15-.29-.29-.44-.44-.14-.15-.28-.29-.43-.43-.14-.15-.29-.29-.44-.44-.14-.15-.29-.29-.43-.43-.14-.15-.29-.29-.44-.43-.14-.15-.29-.29-.43-.44-.14-.15-.29-.29-.44-.43-.14-.15-.29-.29-.43-.44-.14-.15-.29-.29-.43-.43-.14-.15-.29-.29-.44-.44-.14-.15-.28-.29-.43-.43-.14-.15-.29-.29-.44-.44-.14-.15-.29-.29-.43-.43-.14-.15-.29-.29-.44-.43-.14-.15-.29-.29-.43-.44-.14-.15-.29-.29-.44-.43-.14-.15-.29-.29-.43-.44-.14-.15-.29-.29-.43-.43-.14-.15-.29-.29-.44-.44-.14-.15-.28-.29-.43-.43-.14-.15-.29-.29-.44-.44-.14-.15-.28-.29-.43-.43-.14-.15-.29-.29-.44-.44-.14-.15-.29-.29-.43-.43-.14-.15-.29-.29-.44-.43-.14-.15-.29-.29-.43-.44-.14-.15-.29-.29-.44-.43-.14-.15-.29-.29-.43-.44-.14-.15-.29-.29-.43-.43-.14-.15-.29-.29-.44-.44-.14-.15-.28-.29-.43-.43-.14-.15-.29-.29-.44-.44-.14-.15-.29-.29-.43-.43-.14-.15-.29-.29-.44-.43-.14-.15-.29-.29-.43-.44-.14-.15-.29-.29-.44-.43-.14-.15-.29-.29-.43-.44-.14-.15-.29-.29-.43-.43-.14-.15-.29-.29-.44-.44-.14-.15-.28-.29-.43-.43-.14-.15-.29-.29-.44-.44-.14-.15-.28-.29-.43-.43-.14-.15-.29-.29-.44-.44-2.02-2.14-4.87-3.49-8.04-3.49H38.82c-6.13 0-11.09 4.97-11.09 11.09v131.79c0 2.36-.19 3.74-.35 4.48-.58.1-1.55.2-3.06.2H11.09c-3.09 0-6.04 1.29-8.14 3.56-2.1 2.27-3.16 5.31-2.92 8.39l5.09 66.15c.23 2.95 1.61 5.55 3.67 7.4.15.15.28.3.43.43.15.15.28.3.44.44.15.15.28.3.43.43.15.15.28.3.44.44.15.15.28.3.43.43.15.15.28.3.44.44.15.15.28.3.43.44.15.15.28.3.44.43.15.15.28.3.43.44.15.15.28.3.44.43.15.15.28.3.44.44.15.15.28.3.43.43.15.15.28.3.44.44.15.15.28.3.43.43.15.15.28.3.44.44.15.15.28.3.43.44.15.15.28.3.44.43.15.15.28.3.43.44.15.15.28.3.44.43.15.15.28.3.44.44.15.15.28.3.43.43.15.15.28.3.44.44.15.15.28.3.43.43.15.15.28.3.44.44.15.15.28.3.43.43.15.15.28.3.44.44.15.15.28.3.43.44.15.15.28.3.44.43.15.15.28.3.43.44.15.15.28.3.44.43.15.15.28.3.44.44.15.15.28.3.43.43.15.15.28.3.44.44.15.15.28.3.43.43.15.15.28.3.44.44.15.15.28.3.43.44.15.15.28.3.44.43.15.15.28.3.43.44.15.15.28.3.44.43.15.15.28.3.44.44.15.15.28.3.43.43.15.15.28.3.44.44.15.15.28.3.43.43.15.15.28.3.44.44.15.15.28.3.43.43.15.15.28.3.44.44.15.15.28.3.43.44.15.15.28.3.44.43.15.15.28.3.43.44.15.15.28.3.44.43 2.01 2.02 4.78 3.28 7.83 3.28h21.88c24.98 0 50.21-2.69 68.33-15.61.09.1.19.18.29.27.14.15.29.29.44.44.14.15.29.29.43.43.14.15.29.29.44.44.14.15.29.29.43.43.14.15.29.29.44.44.14.15.29.29.43.43.14.15.29.29.44.44.14.15.29.29.44.44.14.15.29.29.43.43.14.15.29.29.44.44.14.15.29.29.43.43.14.15.29.29.44.44.14.15.29.29.43.43.14.15.29.29.44.44.14.15.29.29.43.43.14.15.29.29.44.44.14.15.29.29.44.44.14.15.29.29.43.43.14.15.29.29.44.44.14.15.29.29.43.43.14.15.29.29.44.44.14.15.29.29.43.43.14.15.29.29.44.44.14.15.29.29.43.43.14.15.29.29.44.44.14.15.29.29.43.43.14.15.29.29.44.44 2.09 2.27 5.04 3.59 8.16 3.59h89.04c5.16 0 9.63-3.55 10.8-8.57l5.12-21.96h22.39c.5 1.96 1.51 3.67 2.86 5.03.14.15.29.29.43.43.14.15.29.29.44.44.14.15.29.29.43.43.14.15.29.29.44.44.14.15.29.29.43.43.14.15.29.29.44.44.14.15.29.29.43.43.14.15.29.29.44.44.14.15.29.29.43.43.14.15.29.29.44.44.14.15.29.29.44.44.14.15.29.29.43.43.14.15.29.29.44.44.14.15.29.29.43.43.14.15.29.29.44.44.14.15.29.29.43.43.14.15.29.29.44.44.14.15.29.29.43.43.14.15.29.29.44.44.14.15.29.29.44.44.14.15.29.29.43.43.14.15.29.29.44.44.14.15.29.29.43.43.14.15.29.29.44.44.14.15.29.29.43.43.14.15.29.29.44.44.14.15.29.29.43.43.14.15.29.29.44.44.14.15.29.29.43.43.14.15.29.29.44.44.14.15.29.29.44.44.14.15.29.29.43.43.14.15.29.29.44.44.14.15.29.29.43.43.14.15.29.29.44.44.14.15.29.29.43.43.14.15.29.29.44.44.14.15.29.29.43.43.14.15.29.29.44.44.14.15.29.29.44.44.14.15.29.29.43.43.14.15.29.29.44.44.14.15.29.29.43.43.14.15.29.29.44.44.14.15.29.29.43.43.14.15.29.29.44.44.14.15.29.29.43.43.14.15.29.29.44.44.14.15.29.29.43.43.14.15.29.29.44.44 2.05 2.32 5.04 3.75 8.3 3.75h89.04c.88 0 1.74-.1 2.58-.3.8.19 1.63.3 2.49.3h78.87c6.13 0 11.09-4.97 11.09-11.09v-40.72l12.94 23.83c.55 1.01 1.25 1.9 2.06 2.67.14.15.29.29.43.43.14.15.29.29.44.44.14.15.29.29.43.43.14.15.29.29.44.44.14.15.29.29.43.43.14.15.29.29.44.44.14.15.29.29.43.43.14.15.29.29.44.44.14.15.29.29.43.43.14.15.29.29.44.44.14.15.29.29.44.44.14.15.29.29.43.43.14.15.29.29.44.44.14.15.29.29.43.43.14.15.29.29.44.44.14.15.29.29.43.43.14.15.29.29.44.44.14.15.29.29.43.43.14.15.29.29.44.44.14.15.29.29.44.44.14.15.29.29.43.43.14.15.29.29.44.44.14.15.29.29.43.43.14.15.29.29.44.44.14.15.29.29.43.43.14.15.29.29.44.44.14.15.29.29.43.43.14.15.29.29.44.44.14.15.29.29.43.43.14.15.29.29.44.44.14.15.29.29.44.44.14.15.29.29.43.43.14.15.29.29.44.44.14.15.29.29.43.43.14.15.29.29.44.44.14.15.29.29.43.43.14.15.29.29.44.44.14.15.29.29.43.43.14.15.29.29.44.44.14.15.29.29.44.44.14.15.29.29.43.43.14.15.29.29.44.44.14.15.29.29.43.43.14.15.29.29.44.44.14.15.29.29.43.43.14.15.29.29.44.44.14.15.29.29.43.43.14.15.29.29.44.44.14.15.29.29.43.43.14.15.29.29.44.44 2.07 2.23 5 3.56 8.13 3.56h89.05c1.84 0 3.55-.49 5.08-1.29 1.53.79 3.24 1.29 5.08 1.29h193.36c1.94 0 3.73-.54 5.32-1.41 1.47.72 3.1 1.16 4.85 1.16h76.33c1.75 0 3.38-.44 4.85-1.16 1.59.87 3.38 1.42 5.32 1.42h87.77c6.13 0 11.09-4.97 11.09-11.09v-26.65l8.87 11.31c.33.43.71.81 1.09 1.18.14.15.29.29.43.43.14.15.29.29.44.44.14.15.29.29.43.43.14.15.29.29.44.44.14.15.29.29.43.43.14.15.29.29.44.44.14.15.29.29.44.44.14.15.29.29.43.43.14.15.29.29.44.44.14.15.29.29.43.43.14.15.29.29.44.44.14.15.29.29.43.43.14.15.29.29.44.44.14.15.29.29.43.43.14.15.29.29.44.44.14.15.29.29.44.44.14.15.29.29.43.43.14.15.29.29.44.44.14.15.29.29.43.43.14.15.29.29.44.44.14.15.29.29.43.43.14.15.29.29.44.44.14.15.29.29.43.43.14.15.29.29.44.44.14.15.29.29.43.43.14.15.29.29.44.44.14.15.29.29.44.44.14.15.29.29.43.43.14.15.29.29.44.44.14.15.29.29.43.43.14.15.29.29.44.44.14.15.29.29.43.43.14.15.29.29.44.44.14.15.29.29.43.43.14.15.29.29.44.44.14.15.29.29.44.44.14.15.29.29.43.43.14.15.29.29.44.44.14.15.29.29.43.43.14.15.29.29.44.44.14.15.29.29.43.43.14.15.29.29.44.44.14.15.29.29.43.43.14.15.29.29.44.44.14.15.29.29.43.43.14.15.29.29.44.44.14.15.29.29.44.44.14.15.29.29.43.43.14.15.29.29.44.44.14.15.29.29.43.43 2.09 2.22 5 3.5 8.07 3.5H1169c4.3 0 8.21-2.48 10.04-6.37 1.83-3.89 1.25-8.48-1.49-11.8Z" class="cls-2"/>
    <path d="M237 327.71h28.5l-14.25-60.81L237 327.71z" style="stroke-width:0;fill:none"/>
    <path d="M38.82 337.38c0 11.96-3.82 15.77-14.5 15.77H11.09l5.09 66.15h21.88c57.24 0 83.45-16.28 83.45-66.66V205.59H38.82v131.79ZM190.19 205.59l-63.6 213.71h89.04l7.12-30.53h56.99l7.12 30.53h89.04l-63.6-213.71H190.18ZM237 327.71l14.25-60.81 14.25 60.81h-28.49ZM526 308.63l-55.97-103.04h-89.04V419.3h78.87V316.26l55.97 103.04h89.04V205.59H526v103.04zM697.72 336.61h106.85v-50.88H697.72v-15.26h109.4v-64.88H615.03V419.3h193.36v-67.42H697.72v-15.27zM818.55 355.44h76.33v63.6h-76.33zM1058.97 313.21l82.68-107.62h-97.95l-50.88 67.67v-67.67h-87.77V419.3h87.77v-64.88l50.88 64.88h103.04l-87.77-106.09zM1070.52 154.3c-.83 0-1.63-.4-2.12-1.11-13.14-18.96-19.65-25.27-32.34-25.27-4.6 0-10.32.8-19.13 2.67-.18.04-.36.06-.54.06a2.6 2.6 0 0 1-2.35-1.51c-.5-1.1-.18-2.4.79-3.13 22.81-17.3 24.51-22.83 16.55-53.72a2.581 2.581 0 0 1 2.5-3.22c.82 0 1.63.4 2.12 1.11 13.14 18.96 19.65 25.27 32.34 25.27 4.6 0 10.32-.8 19.13-2.67.18-.04.36-.06.54-.06.99 0 1.92.58 2.35 1.51.5 1.1.17 2.4-.79 3.13-22.81 17.3-24.51 22.83-16.55 53.72a2.581 2.581 0 0 1-2.5 3.22Z" class="cls-3"/>
    <path d="M1033.89 71.64c13.51 19.5 20.63 26.38 34.46 26.38 5.32 0 11.62-1.02 19.66-2.72-23.6 17.9-25.68 24.62-17.49 56.42-13.51-19.5-20.63-26.38-34.46-26.38-5.32 0-11.62 1.02-19.66 2.72 23.6-17.9 25.68-24.62 17.49-56.42M1033.88 66.48a5.168 5.168 0 0 0-4.99 6.45c3.75 14.55 5.37 23.74 3.24 30.61-1.85 5.97-6.61 11.12-18.86 20.41a5.148 5.148 0 0 0-1.57 6.26 5.166 5.166 0 0 0 5.76 2.9c8.62-1.83 14.18-2.61 18.59-2.61 10.96 0 16.61 4.52 30.22 24.16a5.148 5.148 0 0 0 6.38 1.75 5.168 5.168 0 0 0 2.85-5.98c-3.75-14.55-5.37-23.74-3.24-30.61 1.85-5.96 6.59-11.1 18.78-20.36a5.174 5.174 0 0 0 2.12-4.17c0-2.73-2.11-4.96-4.79-5.15-.12 0-.25-.01-.37-.01-.15 0-.3 0-.44.02-.25.02-.5.06-.73.12-8.56 1.81-14.1 2.59-18.49 2.59-10.96 0-16.6-4.52-30.22-24.16a5.148 5.148 0 0 0-4.24-2.22Z" class="cls-2"/>
    <path d="M993.86 111.39c-.66 0-1.25-.42-1.47-1.05-6.24-18.22-8.93-20.44-26.17-21.61-.73-.05-1.32-.6-1.44-1.32-.11-.72.29-1.42.97-1.69 16.1-6.29 17.99-9.22 18.46-28.48.02-.75.58-1.39 1.32-1.5.08-.01.16-.02.24-.02.66 0 1.25.42 1.47 1.05 6.24 18.22 8.93 20.44 26.17 21.61.73.05 1.32.6 1.44 1.32.11.72-.29 1.42-.97 1.69-16.1 6.29-18 9.22-18.46 28.48-.02.75-.58 1.39-1.32 1.5-.08.01-.16.02-.24.02Z" class="cls-3"/>
    <path d="M985.77 57.28c6.42 18.76 9.7 21.45 27.54 22.65-16.66 6.51-18.97 10.07-19.45 29.89-6.42-18.76-9.7-21.45-27.54-22.65 16.66-6.51 18.97-10.07 19.45-29.89m0-3.12c-.16 0-.32.01-.48.04-1.49.23-2.6 1.5-2.64 3-.45 18.52-2.08 21.05-17.47 27.06a3.1 3.1 0 0 0-1.94 3.38 3.1 3.1 0 0 0 2.87 2.63c16.49 1.11 18.8 3.03 24.8 20.56a3.128 3.128 0 0 0 2.95 2.11c.16 0 .32-.01.48-.04 1.49-.23 2.6-1.5 2.64-3 .45-18.52 2.08-21.05 17.47-27.06a3.1 3.1 0 0 0 1.94-3.38 3.1 3.1 0 0 0-2.87-2.63c-16.49-1.11-18.8-3.03-24.8-20.56a3.128 3.128 0 0 0-2.95-2.11Z" class="cls-2"/>
    <path d="M887.63 177.06c-1.69 0-3.32-.87-4.23-2.4-26.99-45-38.66-54.72-65.7-54.72-7.38 0-16.32.79-28.98 2.57-.23.03-.46.05-.69.05-2 0-3.84-1.22-4.59-3.13a4.929 4.929 0 0 1 1.76-5.85c43.42-30.36 46.89-40.92 33.75-102.69a4.93 4.93 0 0 1 4.82-5.96c1.69 0 3.32.87 4.23 2.4 26.99 45 38.66 54.72 65.7 54.72 7.38 0 16.31-.79 28.98-2.57.23-.03.46-.05.69-.05 2 0 3.84 1.22 4.59 3.13.84 2.12.11 4.54-1.76 5.85-43.42 30.36-46.89 40.92-33.75 102.69a4.94 4.94 0 0 1-3.02 5.62c-.59.23-1.2.34-1.8.34Z" class="cls-3"/>
    <path d="M823.78 9.87c26.24 43.75 39.18 57.12 69.93 57.12 8.36 0 18.04-.99 29.67-2.62-45 31.46-49.25 44.29-35.75 107.76-26.24-43.75-39.18-57.12-69.93-57.12-8.36 0-18.04.99-29.67 2.62 45-31.46 49.25-44.29 35.75-107.76M823.78 0c-1.21 0-2.43.22-3.61.69a9.877 9.877 0 0 0-6.04 11.24c6.21 29.17 8.74 47.49 4.35 60.72-3.76 11.34-12.87 20.65-36.1 36.9a9.87 9.87 0 0 0 5.65 17.96c.46 0 .92-.03 1.38-.1 12.43-1.75 21.15-2.53 28.29-2.53 25.03 0 35.37 8.8 61.47 52.32a9.862 9.862 0 0 0 12.08 4.1 9.877 9.877 0 0 0 6.04-11.24c-6.21-29.17-8.74-47.49-4.35-60.72 3.76-11.32 12.84-20.62 35.96-36.8a9.844 9.844 0 0 0 4.35-8.18 9.868 9.868 0 0 0-9.86-9.87c-.19 0-.37 0-.56.02-.33.02-.66.05-.98.1-12.34 1.73-21.02 2.5-28.13 2.5-25.03 0-35.37-8.8-61.47-52.32A9.862 9.862 0 0 0 823.78 0Z" class="cls-2"/>
    <path d="M397.84 615.23a.95.95 0 0 1-.79-.41c-4.76-6.68-7.12-8.9-11.74-8.9-1.85 0-4.11.34-7.8 1.18-.07.02-.14.02-.22.02-.37 0-.72-.22-.88-.57a.965.965 0 0 1 .31-1.18c8.95-6.58 9.67-8.62 6.94-19.83a.971.971 0 0 1 .94-1.2c.31 0 .6.14.79.41 4.76 6.68 7.12 8.9 11.74 8.9 1.85 0 4.11-.34 7.8-1.18.07-.02.14-.02.22-.02.37 0 .72.22.88.57.19.42.06.91-.31 1.18-8.95 6.58-9.67 8.62-6.94 19.83a.971.971 0 0 1-.94 1.2Z" class="cls-3"/>
    <path d="M384.6 585.32c4.85 6.81 7.5 9.31 12.53 9.31 2.13 0 4.68-.45 8.01-1.21-9.25 6.8-10.12 9.28-7.3 20.84-4.85-6.81-7.5-9.31-12.53-9.31-2.13 0-4.68.45-8.01 1.21 9.25-6.8 10.12-9.28 7.3-20.84M384.59 583.38a1.942 1.942 0 0 0-1.87 2.4c2.62 10.76 2.01 12.52-6.57 18.82-.74.54-.99 1.53-.61 2.36.32.7 1.02 1.13 1.76 1.13.14 0 .29-.02.43-.05 3.61-.82 5.81-1.16 7.58-1.16 3.94 0 6.09 1.67 10.96 8.5.37.52.97.81 1.58.81a1.942 1.942 0 0 0 1.87-2.4c-2.62-10.74-2.01-12.51 6.53-18.8.5-.35.83-.93.83-1.59 0-1.04-.82-1.89-1.86-1.93h-.26c-.1 0-.2.03-.3.05-3.58.82-5.77 1.15-7.54 1.15-3.94 0-6.09-1.67-10.96-8.5-.37-.52-.97-.81-1.58-.81Z" class="cls-2"/>
    <path d="M446.46 624.41c-.41 0-.81-.2-1.06-.56-6.81-10.08-9.97-13.22-16.46-13.22-2.13 0-4.73.33-8.67 1.1-.08.02-.16.02-.25.02-.49 0-.95-.28-1.16-.74-.25-.54-.09-1.17.37-1.53 10.77-8.43 11.51-11.2 7.26-26.94-.16-.6.13-1.23.7-1.49.17-.08.35-.12.53-.12.41 0 .81.2 1.06.56 6.81 10.08 9.97 13.22 16.46 13.22 2.13 0 4.72-.33 8.66-1.1.08-.02.16-.02.25-.02.49 0 .95.28 1.16.74.25.54.09 1.17-.37 1.53-10.77 8.43-11.51 11.2-7.27 26.94.16.6-.13 1.23-.7 1.49-.17.08-.35.12-.53.12Z" class="cls-3"/>
    <path d="M427.74 582.21c6.96 10.29 10.48 13.78 17.52 13.78 2.45 0 5.32-.42 8.91-1.13-11.16 8.74-12.08 12.1-7.71 28.27-6.96-10.29-10.48-13.78-17.52-13.78-2.45 0-5.32.42-8.91 1.13 11.16-8.74 12.08-12.1 7.71-28.27M427.73 579.66c-.36 0-.72.07-1.06.23a2.557 2.557 0 0 0-1.4 2.98c4.09 15.16 3.46 17.55-6.82 25.6a2.55 2.55 0 0 0 1.57 4.56c.16 0 .33-.02.49-.05 3.85-.76 6.37-1.08 8.42-1.08 5.57 0 8.45 2.37 15.41 12.66a2.554 2.554 0 0 0 3.17.89 2.557 2.557 0 0 0 1.4-2.98c-4.09-15.14-3.46-17.55 6.77-25.56.62-.46 1.03-1.21 1.03-2.04 0-1.37-1.08-2.49-2.44-2.55h-.3c-.12 0-.23.03-.35.05-3.83.75-6.33 1.07-8.37 1.07-5.57 0-8.45-2.37-15.41-12.66a2.554 2.554 0 0 0-2.11-1.12Z" class="cls-2"/>
  </g>
</svg>